v 0.8090170026 0.5877850056 0.5
vn -0.776902616 -0.6296207905 3.855315458e-17
v 0.8090170026 0.5877850056 -0.5
vn -0.8388800025 -0.5443163514 3.332976378e-17
v 0.5877850056 0.8090170026 -0.5
vn -0.6296207905 -0.776902616 4.7571564e-17
v 0.5877850056 0.8090170026 0.5
vn -0.5443163514 -0.8388800025 5.136658593e-17
v 0.3090170026 0.9510570168 -0.5
vn -0.3587288857 -0.9334418178 5.715682375e-17
v 0.3090170026 0.9510570168 0.5
vn -0.2584457695 -0.9660257697 5.915201648e-17
v 8.326670038e-17 1 -0.5
vn -0.0527208522 -0.9986093044 6.114718273e-17
v 8.326670038e-17 1 0.5
vn 0.0527208522 -0.9986093044 6.114718273e-17
v -0.3090170026 0.9510570168 -0.5
vn 0.2584457695 -0.9660257697 5.915201648e-17
v -0.3090170026 0.9510570168 0.5
vn 0.3587288857 -0.9334418178 5.715682375e-17
v -0.5877850056 0.8090170026 -0.5
vn 0.5443163514 -0.8388800025 5.136658593e-17
v -0.5877850056 0.8090170026 0.5
vn 0.6296207905 -0.776902616 4.7571564e-17
v -0.8090170026 0.5877850056 -0.5
vn 0.776902616 -0.6296207905 3.855315458e-17
v -0.8090170026 0.5877850056 0.5
vn 0.8388800025 -0.5443163514 3.332976378e-17
v -0.9510570168 0.3090170026 -0.5
vn 0.9334418178 -0.3587288857 2.196580929e-17
v -0.9510570168 0.3090170026 0.5
vn 0.9660257697 -0.2584457695 1.259701692e-17
v -1 8.326669376e-17 -0.5
vn 0.9986093044 -0.0527208522 3.228221026e-18
v -1 8.326670038e-17 0.5
vn 0.9986093044 0.0527208522 -3.228221026e-18
v -0.9510570168 -0.3090170026 -0.5
vn 0.9660257697 0.2584457695 -1.259701692e-17
v -0.9510570168 -0.3090170026 0.5
vn 0.9334418178 0.3587288857 -2.196580929e-17
v -0.8090170026 -0.5877850056 -0.5
vn 0.8388800025 0.5443163514 -3.332976378e-17
v -0.8090170026 -0.5877850056 0.5
vn 0.776902616 0.6296207905 -3.855315458e-17
v -0.5877850056 -0.8090170026 -0.5
vn 0.6296207905 0.776902616 -4.7571564e-17
v -0.5877850056 -0.8090170026 0.5
vn 0.5443163514 0.8388800025 -5.136658593e-17
v -0.3090170026 -0.9510570168 -0.5
vn 0.3587288857 0.9334418178 -5.715682375e-17
v -0.3090170026 -0.9510570168 0.5
vn 0.2584457695 0.9660257697 -5.915201648e-17
v -2.22045002e-16 -1 -0.5
vn 0.0527208522 0.9986093044 -6.114718273e-17
v -2.22045002e-16 -1 0.5
vn -0.0527208522 0.9986093044 -6.114718273e-17
v 0.3090170026 -0.9510570168 -0.5
vn -0.2584457695 0.9660257697 -5.915201648e-17
v 0.3090170026 -0.9510570168 0.5
vn -0.3587288857 0.9334418178 -5.715682375e-17
v 0.5877850056 -0.8090170026 -0.5
vn -0.5443163514 0.8388800025 -5.136658593e-17
v 0.5877850056 -0.8090170026 0.5
vn -0.6296207905 0.776902616 -4.7571564e-17
v 0.8090170026 -0.5877850056 -0.5
vn -0.776902616 0.6296207905 -3.855315458e-17
v 0.8090170026 -0.5877850056 0.5
vn -0.8388800025 0.5443163514 -3.332976378e-17
v 0.9510570168 -0.3090170026 -0.5
vn -0.9334418178 0.3587288857 -2.196580929e-17
v 0.9510570168 -0.3090170026 0.5
vn -0.9660257697 0.2584457695 -1.259701692e-17
v 1 -1.110219914e-16 0.5
vn -0.9986093044 -0.0527208522 3.228221026e-18
v 0.9510570168 0.3090170026 0.5
vn -0.9334418178 -0.3587288857 2.196580929e-17
v 1 -1.110219981e-16 -0.5
vn -0.9986093044 0.0527208522 -3.228221026e-18
v 0.9510570168 0.3090170026 -0.5
vn -0.9660257697 -0.2584457695 1.259701692e-17
# mm_gid 0
g mmGroup0
f 1//1 3//3 2//2 
f 3//3 1//1 4//4 
f 4//4 5//5 3//3 
f 5//5 4//4 6//6 
f 6//6 7//7 5//5 
f 7//7 6//6 8//8 
f 8//8 9//9 7//7 
f 9//9 8//8 10//10 
f 10//10 11//11 9//9 
f 11//11 10//10 12//12 
f 12//12 13//13 11//11 
f 13//13 12//12 14//14 
f 14//14 15//15 13//13 
f 15//15 14//14 16//16 
f 16//16 17//17 15//15 
f 17//17 16//16 18//18 
f 18//18 19//19 17//17 
f 19//19 18//18 20//20 
f 20//20 21//21 19//19 
f 21//21 20//20 22//22 
f 22//22 23//23 21//21 
f 23//23 22//22 24//24 
f 24//24 25//25 23//23 
f 25//25 24//24 26//26 
f 26//26 27//27 25//25 
f 27//27 26//26 28//28 
f 28//28 29//29 27//27 
f 29//29 28//28 30//30 
f 30//30 31//31 29//29 
f 31//31 30//30 32//32 
f 32//32 33//33 31//31 
f 33//33 32//32 34//34 
f 34//34 35//35 33//33 
f 35//35 34//34 36//36 
f 36//36 39//39 35//35 
f 39//39 36//36 37//37 
f 37//37 40//40 39//39 
f 40//40 37//37 38//38 
f 38//38 2//2 40//40 
f 2//2 38//38 1//1 
